<svg width="189" height="37" viewBox="0 0 189 37" fill="none" xmlns="http://www.w3.org/2000/svg">
<path d="M13.456 27.28C11.344 27.28 9.65867 26.672 8.4 25.456C7.14133 24.24 6.512 22.5653 6.512 20.432C6.512 19.6853 6.59733 18.9387 6.768 18.192C6.96 17.424 7.19467 16.6987 7.472 16.016C8.09067 14.544 8.912 13.1787 9.936 11.92C10.96 10.64 12.1333 9.53067 13.456 8.592C14.7787 7.632 16.208 6.896 17.744 6.384C19.28 5.85067 20.8587 5.584 22.48 5.584C22.8427 5.584 23.3227 5.60533 23.92 5.648C24.5387 5.66933 25.0187 5.75467 25.36 5.904C25.4667 5.94667 25.6587 6.04267 25.936 6.192C26.2347 6.34133 26.384 6.50133 26.384 6.672C26.384 6.75733 26.32 6.81067 26.192 6.832C26.064 6.85333 25.9787 6.864 25.936 6.864C25.6587 6.864 25.4133 6.832 25.2 6.768C24.9867 6.68267 24.752 6.59733 24.496 6.512C24.0907 6.384 23.664 6.29867 23.216 6.256C22.7893 6.192 22.3627 6.16 21.936 6.16H21.52C20.0907 6.16 18.7573 6.448 17.52 7.024C16.2827 7.57867 15.1413 8.32533 14.096 9.264C13.072 10.2027 12.144 11.2587 11.312 12.432C10.5013 13.6053 9.808 14.8 9.232 16.016C8.912 16.6773 8.656 17.3707 8.464 18.096C8.29333 18.8213 8.208 19.5573 8.208 20.304C8.208 21.1787 8.34667 22.0427 8.624 22.896C8.90133 23.7493 9.33867 24.4853 9.936 25.104C10.5333 25.7013 11.3013 26.096 12.24 26.288C12.5173 26.3307 12.7947 26.3627 13.072 26.384C13.3493 26.4267 13.6267 26.448 13.904 26.448C15.184 26.448 16.528 26.2027 17.936 25.712C19.344 25.2 20.7093 24.5173 22.032 23.664C23.3547 22.8107 24.528 21.84 25.552 20.752C26.5973 19.664 27.3973 18.544 27.952 17.392C28.7413 15.7067 29.136 13.936 29.136 12.08C29.136 10.2667 28.72 8.61333 27.888 7.12C27.0773 5.60533 25.8293 4.45333 24.144 3.664C22.7147 2.98133 21.136 2.46933 19.408 2.128C17.7013 1.76533 16.0587 1.584 14.48 1.584C13.1147 1.584 11.7387 1.73333 10.352 2.032C8.98667 2.33067 7.71733 2.864 6.544 3.632C5.79733 4.12266 5.104 4.752 4.464 5.52C3.80267 6.26667 3.28 7.088 2.896 7.984C2.49067 8.88 2.288 9.79733 2.288 10.736C2.288 11.6107 2.48 12.432 2.864 13.2C3.12 13.712 3.49333 14.2133 3.984 14.704C4.47467 15.1947 5.02933 15.44 5.648 15.44C5.75467 15.44 5.872 15.4293 6 15.408C6.10667 15.3867 6.21333 15.376 6.32 15.376C6.36267 15.3333 6.43733 15.312 6.544 15.312V15.344C6.544 15.4293 6.50133 15.4933 6.416 15.536C6.352 15.5573 6.27733 15.5893 6.192 15.632C6.02133 15.76 5.82933 15.8773 5.616 15.984C5.40267 16.0693 5.17867 16.112 4.944 16.112C4.45333 16.112 3.97333 15.9627 3.504 15.664C3.01333 15.344 2.58667 14.96 2.224 14.512C1.86133 14.0427 1.584 13.6053 1.392 13.2C1.008 12.3893 0.816 11.5253 0.816 10.608C0.816 9.584 1.05067 8.60267 1.52 7.664C1.968 6.72533 2.544 5.89333 3.248 5.168C4.272 4.144 5.44533 3.312 6.768 2.672C8.112 2.032 9.52 1.57333 10.992 1.296C12.464 0.997333 13.904 0.848 15.312 0.848C16.848 0.848 18.384 0.997333 19.92 1.296C21.456 1.59467 22.9387 2.04267 24.368 2.64C26.4373 3.49333 28.08 4.76267 29.296 6.448C30.512 8.112 31.12 10.0853 31.12 12.368C31.12 13.968 30.8 15.5253 30.16 17.04C29.52 18.5547 28.6347 19.8773 27.504 21.008C26.672 21.84 25.7013 22.64 24.592 23.408C23.4827 24.1547 22.288 24.8267 21.008 25.424C19.7493 26 18.4693 26.448 17.168 26.768C15.888 27.1093 14.6507 27.28 13.456 27.28ZM32.399 26.256C31.9937 26.256 31.5457 26.1813 31.055 26.032C30.5643 25.8827 30.2017 25.6053 29.967 25.2V25.136C29.967 25.0293 30.1057 24.8693 30.383 24.656C30.639 24.4213 30.9163 24.1973 31.215 23.984C31.5137 23.7493 31.7057 23.5787 31.791 23.472L32.015 23.408L32.079 23.536C31.9297 23.664 31.855 23.8027 31.855 23.952C31.855 24.272 31.9723 24.5387 32.207 24.752C32.463 24.9653 32.751 25.1253 33.071 25.232C33.4123 25.3387 33.711 25.392 33.967 25.392C34.2657 25.392 34.639 25.3067 35.087 25.136C35.5563 24.9653 35.9723 24.7307 36.335 24.432C36.6977 24.1333 36.879 23.8027 36.879 23.44C36.879 22.8853 36.7083 22.4053 36.367 22C36.0257 21.5947 35.631 21.2107 35.183 20.848C34.735 20.4853 34.3403 20.1013 33.999 19.696C33.6577 19.2907 33.487 18.8213 33.487 18.288C33.487 17.6693 33.6683 17.1147 34.031 16.624C34.415 16.112 34.895 15.6853 35.471 15.344C36.0683 14.9813 36.687 14.7147 37.327 14.544C37.967 14.352 38.5537 14.256 39.087 14.256C39.1723 14.256 39.3643 14.2773 39.663 14.32C39.9617 14.3413 40.239 14.3947 40.495 14.48C40.7723 14.544 40.911 14.64 40.911 14.768C40.911 14.8107 40.9003 14.832 40.879 14.832H40.815L40.559 14.768C40.623 14.9173 40.655 15.0987 40.655 15.312C40.655 15.504 40.6123 15.7493 40.527 16.048C40.4417 16.3467 40.3457 16.5813 40.239 16.752C40.2177 16.7947 40.111 16.9333 39.919 17.168C39.727 17.4027 39.535 17.6267 39.343 17.84C39.151 18.0533 39.0337 18.16 38.991 18.16L38.959 18.096C39.0017 17.9893 39.1403 17.808 39.375 17.552C39.6097 17.2747 39.727 16.9227 39.727 16.496C39.727 16.048 39.5243 15.6853 39.119 15.408C38.7137 15.1093 38.2977 14.96 37.871 14.96C37.4657 14.96 37.039 15.088 36.591 15.344C36.1643 15.6 35.8017 15.9307 35.503 16.336C35.2257 16.7413 35.087 17.1573 35.087 17.584C35.087 17.968 35.2683 18.3733 35.631 18.8C36.015 19.2053 36.4417 19.6213 36.911 20.048C37.4017 20.4533 37.8283 20.8587 38.191 21.264C38.575 21.6693 38.767 22.0533 38.767 22.416V22.512C38.767 23.0453 38.5323 23.5467 38.063 24.016C37.5937 24.464 37.007 24.8587 36.303 25.2C35.599 25.5413 34.8843 25.808 34.159 26C33.455 26.1707 32.8683 26.256 32.399 26.256ZM40.963 26.096C40.6217 26.096 40.387 26.0107 40.259 25.84C40.131 25.6693 40.067 25.424 40.067 25.104C40.067 24.5493 40.195 23.856 40.451 23.024C40.707 22.1707 41.027 21.2747 41.411 20.336C41.795 19.376 42.1683 18.4693 42.531 17.616C42.915 16.7413 43.2243 16.0267 43.459 15.472C43.1817 15.4933 42.9043 15.504 42.627 15.504C42.3497 15.504 42.0617 15.5147 41.763 15.536C41.7203 15.4933 41.699 15.4507 41.699 15.408C41.699 15.28 41.7843 15.1307 41.955 14.96C42.1257 14.7893 42.3177 14.6507 42.531 14.544C42.7657 14.416 42.9363 14.352 43.043 14.352H43.939C44.1523 13.84 44.3657 13.328 44.579 12.816C44.8137 12.304 45.027 11.792 45.219 11.28C45.3257 11.0027 45.443 10.7787 45.571 10.608C45.7203 10.416 45.923 10.2347 46.179 10.064C46.5417 9.82933 46.9897 9.63733 47.523 9.488C48.0563 9.33867 48.5257 9.264 48.931 9.264C48.9737 9.264 49.0163 9.28533 49.059 9.328C49.123 9.37067 49.1657 9.40267 49.187 9.424V9.552C49.187 9.616 49.155 9.63733 49.091 9.616C49.0483 9.59467 49.0057 9.584 48.963 9.584C48.707 9.584 48.4083 9.79733 48.067 10.224C47.7257 10.6293 47.3737 11.12 47.011 11.696C46.6483 12.272 46.3283 12.8267 46.051 13.36C45.795 13.872 45.6137 14.224 45.507 14.416H46.787C47.1283 14.416 47.4697 14.416 47.811 14.416C48.1523 14.3947 48.4937 14.3627 48.835 14.32L48.867 14.384C48.8457 14.384 48.835 14.3947 48.835 14.416C48.835 14.4373 48.8243 14.448 48.803 14.448C48.739 14.512 48.579 14.6187 48.323 14.768C48.067 14.896 47.811 15.0133 47.555 15.12C47.299 15.2267 47.1177 15.2907 47.011 15.312C46.6697 15.3547 46.3283 15.3867 45.987 15.408C45.667 15.4293 45.3363 15.44 44.995 15.44C44.7817 15.9093 44.5043 16.528 44.163 17.296C43.8217 18.064 43.4803 18.8853 43.139 19.76C42.7977 20.6133 42.5097 21.4347 42.275 22.224C42.0617 22.992 41.955 23.632 41.955 24.144C41.955 24.272 41.9763 24.4213 42.019 24.592C42.0617 24.7627 42.1683 24.848 42.339 24.848C42.4883 24.848 42.6377 24.7947 42.787 24.688C43.2563 24.4107 43.715 24.0373 44.163 23.568C44.6323 23.0773 45.059 22.5547 45.443 22C45.8483 21.424 46.1683 20.9013 46.403 20.432C46.4457 20.4533 46.467 20.496 46.467 20.56C46.467 20.688 46.3923 20.88 46.243 21.136C46.0937 21.3707 45.923 21.6267 45.731 21.904C45.539 22.1813 45.3577 22.4267 45.187 22.64C45.0377 22.8533 44.963 22.9813 44.963 23.024C44.9417 23.1947 44.899 23.3227 44.835 23.408C44.7923 23.472 44.739 23.5893 44.675 23.76C44.3977 24.016 44.0457 24.336 43.619 24.72C43.1923 25.0827 42.7443 25.4027 42.275 25.68C41.8057 25.9573 41.3683 26.096 40.963 26.096ZM46.9593 26.064C46.6179 26.064 46.3939 25.936 46.2873 25.68C46.2019 25.4027 46.1593 25.1253 46.1593 24.848C46.1593 23.8453 46.3513 22.768 46.7353 21.616C47.1193 20.464 47.6206 19.3653 48.2393 18.32C48.8579 17.2533 49.5299 16.3787 50.2552 15.696C51.0233 14.992 51.9299 14.64 52.9753 14.64C53.4019 14.64 53.8179 14.6933 54.2233 14.8C54.6499 14.8853 55.0659 15.0133 55.4713 15.184C55.8339 14.928 56.2286 14.704 56.6553 14.512C57.0819 14.32 57.5193 14.224 57.9673 14.224C58.0739 14.224 58.1593 14.288 58.2233 14.416V14.512C58.2233 14.576 58.1913 14.608 58.1273 14.608C58.0846 14.5867 58.0419 14.576 57.9993 14.576C57.6579 14.576 57.2846 14.8427 56.8793 15.376C56.4739 15.888 56.0686 16.5493 55.6633 17.36C55.2579 18.1707 54.8846 19.024 54.5433 19.92C54.2233 20.816 53.9566 21.6373 53.7433 22.384C53.5513 23.1307 53.4553 23.696 53.4553 24.08C53.4553 24.2293 53.4766 24.4 53.5193 24.592C53.5833 24.784 53.7113 24.88 53.9033 24.88C54.0099 24.88 54.0953 24.8587 54.1593 24.816C54.2446 24.7733 54.3299 24.7307 54.4153 24.688C54.8846 24.4107 55.3433 24.0373 55.7913 23.568C56.2606 23.0773 56.6873 22.5547 57.0713 22C57.4766 21.424 57.8073 20.9013 58.0633 20.432C58.0846 20.4533 58.0953 20.496 58.0953 20.56C58.0953 20.688 58.0206 20.88 57.8713 21.136C57.7219 21.3707 57.5513 21.6267 57.3593 21.904C57.1673 22.1813 56.9859 22.4267 56.8153 22.64C56.6659 22.8533 56.5913 22.9813 56.5913 23.024C56.5699 23.1733 56.5379 23.3013 56.4953 23.408C56.4526 23.4933 56.3886 23.6107 56.3033 23.76C56.0259 24.0373 55.6739 24.3573 55.2473 24.72C54.8206 25.0827 54.3726 25.4027 53.9033 25.68C53.4553 25.936 53.0179 26.064 52.5913 26.064C51.9299 26.064 51.5993 25.712 51.5993 25.008C51.5993 24.5813 51.6846 24.0907 51.8553 23.536C52.0473 22.96 52.2606 22.3947 52.4953 21.84C52.7513 21.264 52.9753 20.784 53.1673 20.4C53.1673 20.3787 53.1673 20.3467 53.1673 20.304C53.1673 20.2613 53.1566 20.24 53.1353 20.24C53.1139 20.24 53.0819 20.2613 53.0393 20.304C52.7833 20.6453 52.4099 21.136 51.9193 21.776C51.4286 22.416 50.8846 23.0667 50.2873 23.728C49.7113 24.368 49.1246 24.9227 48.5273 25.392C47.9299 25.84 47.4073 26.064 46.9593 26.064ZM48.3673 24.688C48.6019 24.688 48.8899 24.5387 49.2313 24.24C49.5939 23.92 49.9673 23.5467 50.3513 23.12C50.7566 22.672 51.1086 22.2453 51.4073 21.84C51.7273 21.4347 51.9513 21.136 52.0793 20.944C52.3353 20.56 52.6233 20.08 52.9433 19.504C53.2846 18.928 53.5726 18.3307 53.8073 17.712C54.0633 17.0933 54.1913 16.5707 54.1913 16.144C54.1913 15.4827 53.8606 15.152 53.1993 15.152C52.8153 15.152 52.4099 15.3227 51.9833 15.664C51.5566 16.0053 51.2153 16.3147 50.9593 16.592C50.6819 16.9333 50.3619 17.424 49.9993 18.064C49.6579 18.704 49.3379 19.3973 49.0393 20.144C48.7406 20.8907 48.4846 21.6053 48.2713 22.288C48.0793 22.9707 47.9833 23.536 47.9833 23.984C47.9833 24.112 48.0046 24.2613 48.0473 24.432C48.0899 24.6027 48.1966 24.688 48.3673 24.688ZM46.865 36.72C46.737 36.72 46.5023 36.6667 46.161 36.56C45.7983 36.4533 45.4677 36.3147 45.169 36.144C44.849 35.9733 44.689 35.8027 44.689 35.632C44.689 35.568 44.7317 35.536 44.817 35.536C44.9023 35.5787 44.9877 35.6 45.073 35.6C45.1583 35.6 45.2117 35.5893 45.233 35.568C45.2117 35.504 45.1903 35.44 45.169 35.376C45.1263 35.312 45.105 35.2373 45.105 35.152C45.105 35.0453 45.1477 34.9813 45.233 34.96C45.169 34.832 45.1157 34.704 45.073 34.576C45.009 34.4693 44.9343 34.352 44.849 34.224C44.8063 34.1387 44.7103 34 44.561 33.808C44.4117 33.6373 44.337 33.5093 44.337 33.424C44.337 33.3387 44.3583 33.2533 44.401 33.168C44.849 33.7653 45.233 34.2453 45.553 34.608C45.873 34.9707 46.2677 35.2267 46.737 35.376C47.185 35.5467 47.8143 35.632 48.625 35.632C49.4357 35.632 50.1823 35.376 50.865 34.864C51.5477 34.3733 52.1877 33.7227 52.785 32.912C53.361 32.1013 53.8837 31.2267 54.353 30.288C54.801 29.3493 55.1957 28.4427 55.537 27.568C55.8783 26.6933 56.1557 25.9573 56.369 25.36C56.7957 24.1227 57.1903 22.8747 57.553 21.616C57.9157 20.3573 58.2677 19.0987 58.609 17.84C58.7797 17.1573 58.9503 16.464 59.121 15.76C59.2917 15.0347 59.4943 14.352 59.729 13.712C59.8783 13.328 60.209 12.976 60.721 12.656C61.2543 12.3147 61.8197 12.048 62.417 11.856C63.0357 11.6427 63.537 11.536 63.921 11.536C63.985 11.536 64.0383 11.5787 64.081 11.664C64.145 11.728 64.177 11.7813 64.177 11.824C64.177 11.9947 64.1023 12.1013 63.953 12.144C63.889 12.08 63.8463 12.016 63.825 11.952C63.8037 11.8667 63.7397 11.824 63.633 11.824C63.377 11.824 63.0677 11.9947 62.705 12.336C62.3423 12.6773 62.0117 13.0613 61.713 13.488C61.4143 13.8933 61.2223 14.2133 61.137 14.448C60.7957 15.472 60.4757 16.5067 60.177 17.552C59.8783 18.5973 59.5797 19.6427 59.281 20.688C59.4517 20.432 59.729 20.0693 60.113 19.6C60.5183 19.1307 60.9663 18.6187 61.457 18.064C61.969 17.5093 62.4917 16.976 63.025 16.464C63.5583 15.952 64.049 15.536 64.497 15.216C64.9663 14.896 65.3503 14.736 65.649 14.736C65.8837 14.736 66.0223 14.9173 66.065 15.28C66.129 15.6213 66.161 15.8773 66.161 16.048C66.161 17.0293 65.969 18.1067 65.585 19.28C65.201 20.4533 64.6997 21.5733 64.081 22.64C63.4623 23.6853 62.7903 24.5387 62.065 25.2C61.5743 25.6693 61.0623 25.9787 60.529 26.128C59.9957 26.2987 59.3877 26.384 58.705 26.384C58.513 26.384 58.2997 26.3627 58.065 26.32C57.8517 26.2987 57.681 26.2347 57.553 26.128C57.1263 27.216 56.5823 28.368 55.921 29.584C55.2597 30.8213 54.481 31.9733 53.585 33.04C52.689 34.128 51.6863 35.0133 50.577 35.696C49.4463 36.3787 48.209 36.72 46.865 36.72ZM59.153 25.744C59.5583 25.744 59.9637 25.5733 60.369 25.232C60.7957 24.8907 61.1263 24.5813 61.361 24.304C61.681 23.9413 62.0117 23.4613 62.353 22.864C62.7157 22.2453 63.0463 21.5947 63.345 20.912C63.665 20.208 63.921 19.5253 64.113 18.864C64.305 18.2027 64.401 17.6373 64.401 17.168V17.04C64.401 16.9547 64.3903 16.88 64.369 16.816C64.3477 16.7307 64.2943 16.688 64.209 16.688C64.017 16.688 63.7077 16.88 63.281 17.264C62.8757 17.6267 62.4383 18.064 61.969 18.576C61.4997 19.088 61.0623 19.5787 60.657 20.048C60.273 20.496 60.017 20.8053 59.889 20.976C59.7183 21.1893 59.5477 21.4133 59.377 21.648C59.2277 21.8827 59.089 22.1173 58.961 22.352C58.8117 22.6507 58.641 23.0347 58.449 23.504C58.2783 23.9733 58.193 24.3787 58.193 24.72C58.193 24.9973 58.2783 25.2427 58.449 25.456C58.641 25.648 58.8757 25.744 59.153 25.744Z" fill="url(#paint0_linear_2_6)"/>
<path d="M85.7578 28.816C85.6511 28.816 85.6618 28.72 85.7898 28.528C85.9391 28.336 86.2911 27.9947 86.8458 27.504C87.8484 26.608 88.5844 25.6693 89.0538 24.688C89.5444 23.7067 89.7898 22.768 89.7898 21.872C89.7898 20.528 89.2778 19.3867 88.2537 18.448C87.2511 17.488 85.8004 17.008 83.9018 17.008C82.7284 17.008 81.4058 17.232 79.9338 17.68C79.0804 17.936 78.5044 18.064 78.2058 18.064C78.0351 18.064 77.9498 18.0213 77.9498 17.936C77.9498 17.872 78.0671 17.7227 78.3018 17.488C78.8351 16.9973 79.6138 16.3573 80.6378 15.568C81.6618 14.7573 82.8351 13.8827 84.1578 12.944C85.5018 12.0053 86.8991 11.0667 88.3498 10.128C89.8218 9.168 91.2618 8.28267 92.6698 7.472C94.0778 6.66133 95.3684 6 96.5418 5.488C97.7364 4.95467 98.7178 4.64533 99.4858 4.56H99.6458C99.8804 4.56 99.9978 4.63467 99.9978 4.784C99.9978 5.01867 99.8271 5.21067 99.4858 5.36C97.6084 6.02133 95.7204 6.85333 93.8218 7.856C91.9231 8.85867 90.0991 9.936 88.3498 11.088C86.6004 12.2187 85.0004 13.328 83.5498 14.416C82.0991 15.4827 80.8618 16.4 79.8378 17.168C81.8858 16.5067 83.7631 16.176 85.4698 16.176C87.0271 16.176 88.3604 16.4107 89.4698 16.88C90.5791 17.3493 91.4324 17.9787 92.0298 18.768C92.6271 19.536 92.9258 20.4 92.9258 21.36C92.9258 22.5333 92.4244 23.7493 91.4218 25.008C90.4404 26.2667 88.8618 27.4187 86.6858 28.464C86.4938 28.5493 86.3124 28.624 86.1418 28.688C85.9711 28.7733 85.8431 28.816 85.7578 28.816ZM71.2937 28.72C71.2084 28.72 71.1657 28.6133 71.1657 28.4C71.1657 28.2933 71.1764 28.1653 71.1977 28.016C71.2191 27.888 71.2724 27.7173 71.3577 27.504C71.5284 27.0133 71.8271 26.3093 72.2538 25.392C72.6804 24.4747 73.1818 23.4187 73.7578 22.224C74.3551 21.0293 74.9951 19.7813 75.6778 18.48C76.3818 17.1787 77.0964 15.888 77.8218 14.608C78.5471 13.328 79.2404 12.144 79.9018 11.056C80.5844 9.94667 81.1924 9.008 81.7258 8.24C82.2804 7.472 82.7284 6.94933 83.0698 6.672C83.2831 6.50133 83.5924 6.416 83.9978 6.416C84.2324 6.416 84.4458 6.45867 84.6378 6.544C84.8298 6.62933 84.9258 6.77867 84.9258 6.992C84.9258 7.184 84.8191 7.41867 84.6058 7.696C84.0938 8.35733 83.5071 9.15733 82.8458 10.096C82.2058 11.0133 81.5338 11.984 80.8298 13.008C80.1471 14.032 79.4644 15.056 78.7818 16.08C78.1204 17.104 77.5124 18.0533 76.9578 18.928C76.2751 19.9947 75.5711 21.136 74.8458 22.352C74.1418 23.5467 73.4911 24.6773 72.8938 25.744C72.3178 26.8107 71.8804 27.6853 71.5817 28.368C71.4964 28.6027 71.4004 28.72 71.2937 28.72ZM95.9015 26.288C95.0695 26.288 94.4402 26.0853 94.0135 25.68C93.6082 25.2533 93.4055 24.7093 93.4055 24.048C93.4055 23.6427 93.4588 23.248 93.5655 22.864C93.6722 22.48 93.7895 22.1387 93.9175 21.84C93.7682 21.9893 93.6188 22.128 93.4695 22.256C93.3415 22.3627 93.2348 22.448 93.1495 22.512C93.0642 22.576 92.9895 22.608 92.9255 22.608C92.8402 22.608 92.7975 22.5547 92.7975 22.448C92.7975 22.2987 92.9042 22.128 93.1175 21.936C93.8642 21.3173 94.4508 20.7733 94.8775 20.304C95.3042 19.8133 95.7522 19.3653 96.2215 18.96C97.0108 18.2773 97.8535 17.744 98.7495 17.36C99.6455 16.976 100.542 16.784 101.438 16.784C102.376 16.784 103.112 17.008 103.646 17.456C104.179 17.904 104.446 18.5653 104.446 19.44C104.446 19.9307 104.296 20.496 103.998 21.136C103.72 21.776 103.272 22.4373 102.654 23.12C102.398 23.3973 102.11 23.6747 101.79 23.952C101.47 24.208 101.192 24.4 100.958 24.528C102.003 24.4213 102.984 24.0587 103.902 23.44C104.819 22.8 105.64 22.1707 106.366 21.552C106.472 21.488 106.547 21.456 106.59 21.456C106.696 21.456 106.75 21.5093 106.75 21.616C106.75 21.7013 106.696 21.7973 106.59 21.904C105.672 22.7787 104.68 23.5147 103.614 24.112C102.568 24.7093 101.406 24.9973 100.126 24.976C99.3788 25.3813 98.6428 25.7013 97.9175 25.936C97.2135 26.1707 96.5415 26.288 95.9015 26.288ZM97.3415 25.392C97.6402 25.392 97.9602 25.3387 98.3015 25.232C98.6428 25.1253 98.9842 24.9867 99.3255 24.816C99.1975 24.816 99.0695 24.752 98.9415 24.624C98.8348 24.496 98.7815 24.3253 98.7815 24.112C98.7815 23.6853 98.9415 23.248 99.2615 22.8C99.5815 22.352 99.9762 21.968 100.446 21.648C100.915 21.328 101.374 21.168 101.822 21.168C102.078 21.168 102.312 21.2427 102.526 21.392C102.76 21.52 102.888 21.7013 102.91 21.936C103.272 21.5307 103.518 21.0933 103.646 20.624C103.795 20.1547 103.87 19.7173 103.87 19.312C103.87 18.7573 103.688 18.3413 103.326 18.064C102.984 17.7653 102.515 17.616 101.918 17.616C101.342 17.616 100.702 17.8187 99.9975 18.224C99.3148 18.6293 98.6642 19.152 98.0455 19.792C97.4482 20.432 96.9468 21.1253 96.5415 21.872C96.1575 22.6187 95.9655 23.3333 95.9655 24.016C95.9655 24.9333 96.4242 25.392 97.3415 25.392ZM106.059 26.16C105.845 26.16 105.589 26.1067 105.291 26C104.992 25.9147 104.693 25.744 104.395 25.488C104.629 25.168 104.971 24.7413 105.419 24.208C105.845 23.6533 106.304 23.0453 106.795 22.384C107.285 21.7227 107.744 21.0613 108.171 20.4C107.829 20.7413 107.456 21.104 107.051 21.488C106.645 21.872 106.24 22.224 105.835 22.544C105.749 22.6293 105.653 22.672 105.547 22.672C105.461 22.672 105.419 22.6293 105.419 22.544C105.419 22.4373 105.504 22.3093 105.675 22.16C106.272 21.6267 106.933 21.0187 107.659 20.336C108.405 19.632 108.949 18.9173 109.291 18.192C109.397 17.936 109.451 17.7013 109.451 17.488C109.451 17.2107 109.397 17.04 109.291 16.976C109.205 16.912 109.163 16.8267 109.163 16.72C109.163 16.528 109.259 16.432 109.451 16.432C109.557 16.432 109.643 16.4533 109.707 16.496C109.941 16.6027 110.165 16.8053 110.379 17.104C110.592 17.4027 110.699 17.8507 110.699 18.448C110.699 18.7893 110.656 19.184 110.571 19.632C110.485 20.0587 110.336 20.5493 110.123 21.104C110.443 20.6773 110.763 20.2613 111.083 19.856C111.424 19.4507 111.733 19.088 112.011 18.768C112.587 18.1067 113.163 17.6373 113.739 17.36C114.336 17.0613 114.869 16.912 115.339 16.912C115.893 16.912 116.341 17.072 116.683 17.392C117.024 17.712 117.195 18.128 117.195 18.64C117.195 19.0453 117.088 19.4613 116.875 19.888C116.811 20.0587 116.661 20.3253 116.427 20.688C116.192 21.0293 115.936 21.4027 115.659 21.808C115.381 22.2133 115.125 22.576 114.891 22.896C114.613 23.2373 114.421 23.536 114.315 23.792C114.208 24.0267 114.155 24.2187 114.155 24.368C114.155 24.5813 114.272 24.688 114.507 24.688C114.805 24.688 115.221 24.528 115.755 24.208C116.075 24.016 116.437 23.76 116.843 23.44C117.269 23.0987 117.685 22.7573 118.091 22.416C118.517 22.0533 118.859 21.7547 119.115 21.52C119.2 21.4347 119.275 21.392 119.339 21.392C119.424 21.392 119.467 21.4453 119.467 21.552C119.467 21.68 119.413 21.7973 119.307 21.904C118.667 22.5013 117.92 23.152 117.067 23.856C116.235 24.56 115.413 25.104 114.603 25.488C113.941 25.808 113.333 25.968 112.779 25.968C112.309 25.968 111.936 25.8507 111.659 25.616C111.381 25.36 111.243 24.9973 111.243 24.528C111.243 24.1867 111.328 23.7813 111.499 23.312C111.712 22.736 112.011 22.16 112.395 21.584C112.8 21.008 113.216 20.464 113.643 19.952C114.091 19.4187 114.475 18.9707 114.795 18.608C115.072 18.3093 115.211 18.0533 115.211 17.84C115.211 17.648 115.083 17.552 114.827 17.552C114.571 17.552 114.187 17.7013 113.675 18C113.184 18.2773 112.629 18.736 112.011 19.376C111.136 20.2933 110.368 21.2853 109.707 22.352C109.045 23.4187 108.288 24.4213 107.435 25.36C106.965 25.8933 106.507 26.16 106.059 26.16ZM120.698 26.032C120.036 26.032 119.524 25.8293 119.162 25.424C118.799 24.9973 118.617 24.4533 118.617 23.792C118.617 23.1733 118.777 22.4907 119.098 21.744C119.439 20.9973 119.972 20.24 120.698 19.472C121.444 18.6613 122.372 18.0107 123.482 17.52C124.591 17.008 125.647 16.752 126.65 16.752C127.46 16.752 128.154 16.9333 128.73 17.296C129.306 17.6373 129.69 18.0747 129.882 18.608C130.116 18.608 130.404 18.672 130.746 18.8C131.108 18.928 131.29 19.1627 131.29 19.504C131.29 19.7387 131.172 20.0053 130.938 20.304C130.788 20.5173 130.522 20.8373 130.138 21.264C129.775 21.6907 129.434 22.1493 129.114 22.64C128.858 23.024 128.655 23.3867 128.506 23.728C128.356 24.048 128.282 24.3253 128.282 24.56C128.282 24.88 128.442 25.04 128.762 25.04C129.124 25.04 129.668 24.8373 130.394 24.432C131.183 23.984 131.94 23.472 132.666 22.896C133.391 22.32 133.956 21.8613 134.362 21.52C134.468 21.4347 134.543 21.392 134.586 21.392C134.671 21.392 134.714 21.4453 134.714 21.552C134.714 21.68 134.66 21.7973 134.554 21.904C134.362 22.0747 133.988 22.3947 133.434 22.864C132.879 23.3333 132.239 23.824 131.514 24.336C130.81 24.848 130.116 25.264 129.434 25.584C129.092 25.7333 128.772 25.8507 128.474 25.936C128.196 26 127.94 26.032 127.706 26.032C127.13 26.032 126.692 25.872 126.394 25.552C126.095 25.2107 125.946 24.7733 125.946 24.24C125.946 24.0267 125.978 23.8027 126.042 23.568C126.106 23.3333 126.18 23.0987 126.266 22.864L126.49 22.32C125.935 23.0027 125.38 23.5787 124.826 24.048C124.271 24.496 123.716 24.8907 123.161 25.232C122.692 25.5093 122.244 25.712 121.818 25.84C121.412 25.968 121.039 26.032 120.698 26.032ZM121.69 25.2C122.074 25.2 122.628 24.976 123.354 24.528C124.079 24.0587 124.922 23.344 125.882 22.384C126.01 22.256 126.244 22.032 126.586 21.712C126.948 21.3707 127.332 20.9973 127.738 20.592C128.143 20.1653 128.484 19.7493 128.762 19.344C129.06 18.9173 129.21 18.5653 129.21 18.288C129.21 17.8827 128.858 17.68 128.154 17.68C127.535 17.68 126.788 17.9253 125.914 18.416C125.06 18.8853 124.239 19.5893 123.45 20.528C122.639 21.488 122.042 22.32 121.658 23.024C121.295 23.7067 121.114 24.2293 121.114 24.592C121.114 24.9973 121.306 25.2 121.69 25.2ZM135.98 26.352C135.127 26.352 134.38 26.192 133.74 25.872C133.079 25.5307 132.599 24.912 132.3 24.016C132.279 23.9307 132.311 23.8773 132.396 23.856C132.46 23.8347 132.503 23.8773 132.524 23.984C132.738 24.4533 133.015 24.784 133.356 24.976C133.698 25.168 134.071 25.264 134.476 25.264C135.159 25.264 135.756 25.0613 136.268 24.656C136.802 24.2507 137.271 23.7387 137.676 23.12C138.103 22.5013 138.476 21.872 138.796 21.232C139.138 20.5707 139.458 20.0053 139.756 19.536C140.226 18.7467 140.78 18.032 141.42 17.392C142.082 16.752 142.679 16.3573 143.212 16.208C143.084 16.144 142.924 16.112 142.732 16.112C142.199 16.112 141.612 16.272 140.972 16.592C140.332 16.912 139.682 17.328 139.02 17.84C138.38 18.352 137.751 18.896 137.132 19.472C136.535 20.0267 135.98 20.5493 135.468 21.04C134.978 21.5093 134.583 21.8827 134.284 22.16C134.114 22.3093 133.986 22.384 133.9 22.384C133.815 22.384 133.772 22.3413 133.772 22.256C133.772 22.128 133.826 22.0107 133.932 21.904C134.572 21.3493 135.234 20.7307 135.916 20.048C136.599 19.344 137.292 18.672 137.996 18.032C138.7 17.3707 139.415 16.8267 140.14 16.4C140.866 15.9733 141.602 15.76 142.348 15.76C142.434 15.76 142.508 15.76 142.572 15.76C142.658 15.76 142.743 15.7707 142.828 15.792C143.063 15.8133 143.276 15.8773 143.468 15.984C143.682 16.0907 143.746 16.1653 143.66 16.208C143.17 16.4213 142.786 16.848 142.508 17.488C142.231 18.128 141.975 18.8747 141.74 19.728C141.506 20.5813 141.218 21.4453 140.876 22.32C140.556 23.1947 140.087 23.9733 139.468 24.656C139.767 24.5493 140.236 24.304 140.876 23.92C141.516 23.536 142.22 23.0667 142.988 22.512C143.756 21.936 144.471 21.3067 145.132 20.624C145.218 20.5387 145.303 20.496 145.388 20.496C145.495 20.496 145.548 20.5493 145.548 20.656C145.548 20.7413 145.506 20.8267 145.42 20.912C144.844 21.4667 144.204 22.064 143.5 22.704C142.796 23.3227 142.028 23.9093 141.196 24.464C140.386 25.0187 139.543 25.4773 138.668 25.84C137.794 26.1813 136.898 26.352 135.98 26.352ZM150.881 26.032C150.347 26.032 149.921 25.8827 149.601 25.584C149.302 25.2853 149.153 24.88 149.153 24.368C149.153 24.048 149.227 23.6853 149.377 23.28C149.526 22.8747 149.761 22.4587 150.081 22.032C150.571 21.3707 151.041 20.7947 151.489 20.304C151.937 19.792 152.267 19.3333 152.481 18.928C152.694 18.544 152.801 18.2453 152.801 18.032C152.801 17.712 152.609 17.552 152.225 17.552C151.883 17.552 151.393 17.744 150.753 18.128C150.134 18.4907 149.483 19.088 148.801 19.92C148.417 20.3893 147.979 20.944 147.489 21.584C146.998 22.2027 146.603 22.7787 146.305 23.312C146.177 23.5467 146.049 23.792 145.921 24.048C145.814 24.2827 145.643 24.688 145.409 25.264C145.345 25.4133 145.163 25.5733 144.865 25.744C144.587 25.9147 144.363 26 144.193 26C144.065 26 144.001 25.9467 144.001 25.84C144.001 25.7547 144.033 25.648 144.097 25.52C144.203 25.328 144.438 24.72 144.801 23.696C145.185 22.672 145.665 21.4667 146.241 20.08C145.921 20.4213 145.569 20.7947 145.185 21.2C144.801 21.584 144.374 21.9573 143.905 22.32C143.819 22.4053 143.723 22.448 143.617 22.448C143.489 22.448 143.425 22.3947 143.425 22.288C143.425 22.2027 143.521 22.0853 143.713 21.936C144.203 21.5093 144.694 21.0613 145.185 20.592C145.675 20.1013 146.209 19.4933 146.785 18.768C146.977 18.2987 147.318 17.6267 147.809 16.752C148.299 15.856 148.886 14.864 149.569 13.776C150.251 12.688 151.009 11.6 151.841 10.512C152.673 9.424 153.526 8.45333 154.401 7.6C155.19 6.832 156.011 6.24533 156.865 5.84C157.739 5.43467 158.529 5.232 159.233 5.232C159.851 5.232 160.353 5.38133 160.737 5.68C161.121 5.97867 161.313 6.45867 161.313 7.12C161.313 7.78133 161.131 8.48533 160.769 9.232C160.406 9.97867 160.022 10.576 159.617 11.024C158.699 12.048 157.611 12.9867 156.353 13.84C155.115 14.6933 153.814 15.4187 152.449 16.016C152.406 16.0373 152.363 16.0587 152.321 16.08C152.278 16.08 152.235 16.08 152.193 16.08C152.043 16.08 151.969 16.0267 151.969 15.92C151.969 15.792 152.086 15.6853 152.321 15.6C153.131 15.2373 153.953 14.7893 154.785 14.256C155.638 13.7227 156.427 13.1467 157.153 12.528C157.878 11.9093 158.486 11.2907 158.977 10.672C159.553 9.94667 159.926 9.36 160.097 8.912C160.267 8.44267 160.353 8.048 160.353 7.728C160.353 7.30133 160.118 7.088 159.649 7.088C159.435 7.088 159.126 7.19467 158.721 7.408C158.315 7.6 157.835 7.92 157.281 8.368C156.427 9.05067 155.542 9.88267 154.625 10.864C153.729 11.8453 152.843 12.912 151.969 14.064C151.115 15.216 150.305 16.3893 149.537 17.584C148.769 18.7787 148.075 19.9413 147.457 21.072C147.713 20.7093 147.979 20.3467 148.257 19.984C148.534 19.6 148.811 19.2587 149.089 18.96C149.729 18.256 150.358 17.744 150.977 17.424C151.595 17.104 152.15 16.944 152.641 16.944C153.195 16.944 153.643 17.1147 153.985 17.456C154.326 17.776 154.497 18.2133 154.497 18.768C154.497 19.0667 154.443 19.3653 154.337 19.664C154.251 19.9413 154.145 20.1973 154.017 20.432C153.846 20.7947 153.622 21.2213 153.345 21.712C153.067 22.2027 152.801 22.6613 152.545 23.088C152.054 23.8773 151.809 24.4427 151.809 24.784C151.809 24.976 151.894 25.072 152.065 25.072C152.278 25.072 152.63 24.9227 153.121 24.624C153.505 24.3893 153.931 24.0907 154.401 23.728C154.891 23.344 155.371 22.9493 155.841 22.544C156.331 22.1387 156.747 21.7867 157.089 21.488C157.451 21.168 157.686 20.9547 157.793 20.848C157.921 20.72 158.017 20.656 158.081 20.656C158.145 20.656 158.177 20.688 158.177 20.752C158.177 20.8587 158.102 21.008 157.953 21.2C157.398 21.776 156.705 22.4267 155.873 23.152C155.041 23.8773 154.102 24.5813 153.057 25.264C152.651 25.5413 152.257 25.744 151.873 25.872C151.51 25.9787 151.179 26.032 150.881 26.032ZM166.443 27.248C166.166 27.1413 165.888 26.9493 165.611 26.672C165.355 26.3947 165.227 25.9147 165.227 25.232C165.227 24.656 165.323 24.0587 165.515 23.44C165.707 22.8 165.952 22.1707 166.251 21.552C165.696 22.256 165.088 22.9493 164.427 23.632C163.787 24.3147 163.136 24.88 162.475 25.328C161.835 25.7547 161.238 25.968 160.683 25.968C160.214 25.968 159.819 25.84 159.499 25.584C159.2 25.328 159.051 24.9333 159.051 24.4C159.051 24.016 159.126 23.6 159.275 23.152C159.424 22.704 159.691 22.2027 160.075 21.648C160.459 21.0933 160.875 20.5493 161.323 20.016C161.792 19.4613 162.198 18.992 162.539 18.608C162.774 18.3307 162.891 18.1067 162.891 17.936C162.891 17.7227 162.774 17.616 162.539 17.616C162.283 17.616 161.92 17.7867 161.451 18.128C160.96 18.4907 160.438 18.9387 159.883 19.472C159.328 19.984 158.806 20.4853 158.315 20.976C157.824 21.4453 157.408 21.8187 157.067 22.096C157.003 22.16 156.939 22.192 156.875 22.192C156.768 22.192 156.715 22.128 156.715 22C156.715 21.8933 156.811 21.7547 157.003 21.584C157.942 20.7733 158.72 20.0373 159.339 19.376C159.958 18.6933 160.566 18.1173 161.163 17.648C161.483 17.392 161.814 17.2107 162.155 17.104C162.496 16.976 162.816 16.912 163.115 16.912C163.627 16.912 164.054 17.0613 164.395 17.36C164.736 17.6587 164.907 18.0747 164.907 18.608C164.907 19.0133 164.8 19.44 164.587 19.888C164.352 20.4213 164.032 20.9547 163.627 21.488C163.243 22 162.87 22.5013 162.507 22.992C162.23 23.3973 162.027 23.728 161.899 23.984C161.771 24.24 161.707 24.432 161.707 24.56C161.707 24.7307 161.792 24.816 161.963 24.816C162.134 24.816 162.379 24.72 162.699 24.528C163.019 24.336 163.35 24.0907 163.691 23.792C163.926 23.5787 164.128 23.3867 164.299 23.216C164.491 23.024 164.63 22.8853 164.715 22.8C165.206 22.288 165.696 21.744 166.187 21.168C166.678 20.5707 167.104 20.0267 167.467 19.536C167.744 19.1733 167.958 18.896 168.107 18.704C168.278 18.512 168.459 18.3093 168.651 18.096C169.014 17.6907 169.398 17.4773 169.803 17.456C170.038 17.456 170.304 17.5093 170.603 17.616C170.923 17.7013 171.232 17.8827 171.531 18.16C171.318 18.4587 170.998 18.8747 170.571 19.408C170.166 19.92 169.718 20.496 169.227 21.136C168.758 21.7547 168.299 22.3947 167.851 23.056C167.424 23.7173 167.072 24.336 166.795 24.912C166.518 25.488 166.379 25.9893 166.379 26.416C166.379 26.7147 166.464 26.9493 166.635 27.12C166.72 27.2053 166.72 27.248 166.635 27.248C166.55 27.2693 166.486 27.2693 166.443 27.248ZM172.747 28.528C172.277 28.1013 171.957 27.7067 171.787 27.344C171.637 27.0027 171.562 26.5227 171.562 25.904C171.562 25.264 171.648 24.5493 171.819 23.76C172.011 22.9707 172.277 22.1493 172.618 21.296C172.405 21.5093 172.181 21.7227 171.947 21.936C171.712 22.1493 171.477 22.3413 171.242 22.512C171.178 22.576 171.114 22.608 171.05 22.608C170.986 22.608 170.954 22.576 170.954 22.512C170.954 22.3627 171.082 22.16 171.338 21.904C171.68 21.6053 172 21.2747 172.299 20.912C172.597 20.5493 172.928 20.144 173.291 19.696C174.357 17.328 175.552 15.1947 176.875 13.296C178.197 11.3973 179.797 9.57333 181.675 7.824C182.635 6.94933 183.531 6.32 184.363 5.936C185.216 5.552 185.963 5.36 186.603 5.36C187.243 5.36 187.744 5.53067 188.107 5.872C188.469 6.21333 188.651 6.66133 188.651 7.216C188.651 7.74933 188.469 8.35733 188.107 9.04C187.765 9.72267 187.2 10.4373 186.411 11.184C185.856 11.7173 185.195 12.272 184.427 12.848C183.659 13.4027 182.869 13.9253 182.059 14.416C181.248 14.9067 180.491 15.312 179.786 15.632C179.744 15.6533 179.701 15.6747 179.659 15.696C179.616 15.696 179.573 15.696 179.531 15.696C179.381 15.696 179.307 15.6427 179.307 15.536C179.307 15.408 179.424 15.3013 179.659 15.216C180.32 14.9173 181.045 14.512 181.835 14C182.645 13.488 183.424 12.9333 184.171 12.336C184.917 11.7387 185.547 11.1733 186.059 10.64C186.699 9.95733 187.157 9.38133 187.435 8.912C187.733 8.42133 187.883 8.048 187.883 7.792C187.883 7.472 187.701 7.312 187.339 7.312C186.955 7.312 186.4 7.51467 185.675 7.92C184.971 8.304 184.16 8.90133 183.243 9.712C182.112 10.7147 180.992 11.8667 179.883 13.168C178.795 14.4693 177.792 15.76 176.875 17.04C175.979 18.2987 175.232 19.4187 174.635 20.4C175.467 19.2907 176.277 18.4267 177.067 17.808C177.856 17.1893 178.581 16.7413 179.243 16.464C179.797 16.2507 180.32 16.144 180.811 16.144C181.365 16.144 181.813 16.2827 182.155 16.56C182.496 16.8373 182.667 17.1893 182.667 17.616C182.667 18.0427 182.517 18.5227 182.219 19.056C181.941 19.5893 181.461 20.112 180.779 20.624C180.245 21.008 179.531 21.3493 178.635 21.648C177.76 21.9253 176.939 22.064 176.171 22.064C175.723 22.064 175.339 22 175.019 21.872C175.445 22.4053 175.979 22.928 176.619 23.44C177.259 23.9307 177.909 24.336 178.571 24.656C179.253 24.9547 179.851 25.104 180.363 25.104C180.725 25.104 181.056 25.008 181.355 24.816C181.653 24.624 181.803 24.3893 181.803 24.112C181.803 24.0693 181.824 24.048 181.867 24.048C181.931 24.048 181.963 24.0693 181.963 24.112C181.963 24.5173 181.792 24.848 181.451 25.104C181.131 25.36 180.736 25.5413 180.267 25.648C180.053 25.6907 179.829 25.7333 179.595 25.776C179.381 25.7973 179.157 25.808 178.923 25.808C178.048 25.808 177.227 25.6587 176.459 25.36C175.712 25.04 175.061 24.656 174.507 24.208C173.973 23.7387 173.589 23.2907 173.355 22.864C173.077 23.5467 172.864 24.2293 172.715 24.912C172.587 25.5733 172.523 26.1813 172.523 26.736C172.523 27.4827 172.651 28.016 172.907 28.336C172.971 28.4213 172.971 28.4747 172.907 28.496C172.843 28.5387 172.789 28.5493 172.747 28.528ZM175.562 21.712C176.096 21.712 176.725 21.584 177.451 21.328C178.197 21.072 178.805 20.7627 179.275 20.4C179.659 20.1013 179.936 19.7813 180.107 19.44C180.299 19.0987 180.395 18.7893 180.395 18.512C180.395 18.2133 180.299 17.968 180.107 17.776C179.936 17.5627 179.68 17.456 179.339 17.456C178.997 17.456 178.592 17.5733 178.123 17.808C177.653 18.0213 177.109 18.4053 176.491 18.96C176.149 19.28 175.797 19.6107 175.435 19.952C175.093 20.2933 174.773 20.6453 174.475 21.008C174.517 21.1147 174.571 21.232 174.635 21.36C174.699 21.4667 174.773 21.5413 174.859 21.584C174.944 21.6267 175.051 21.6587 175.179 21.68C175.307 21.7013 175.435 21.712 175.562 21.712Z" fill="white"/>
<defs>
<linearGradient id="paint0_linear_2_6" x1="6" y1="17" x2="183" y2="17" gradientUnits="userSpaceOnUse">
<stop stop-color="#F5B927"/>
<stop offset="0.38" stop-color="#EE8B1C"/>
</linearGradient>
</defs>
</svg>
