<svg xmlns="http://www.w3.org/2000/svg" version="1.1" xmlns:xlink="http://www.w3.org/1999/xlink" xmlns:svgjs="http://svgjs.dev/svgjs" width="70" height="70"><svg width="70" height="70" viewBox="0 0 70 70" fill="none" xmlns="http://www.w3.org/2000/svg">
<circle cx="35" cy="35" r="35" fill="white"></circle>
<path d="M18.008 48.262C15.9973 48.262 14.1607 47.8173 12.498 46.928C10.8353 46.0387 9.50133 44.7627 8.496 43.1C7.52933 41.4373 7.046 39.446 7.046 37.126C7.046 35.386 7.37467 33.472 8.032 31.384C8.728 29.2573 9.81067 27.0147 11.28 24.656C12.7493 22.336 14.412 20.2093 16.268 18.276C18.1627 16.3427 20.0573 14.7187 21.952 13.404C23.8853 12.0507 25.6253 11.1227 27.172 10.62C28.448 10.156 29.7627 9.924 31.116 9.924C32.74 9.924 34.1513 10.388 35.35 11.316C36.5487 12.244 37.148 13.7907 37.148 15.956C37.148 16.6907 37.0707 17.4253 36.916 18.16C36.7613 18.856 36.626 19.378 36.51 19.726C36.4713 19.958 36.394 20.074 36.278 20.074C36.046 20.074 35.9687 19.8613 36.046 19.436C36.1233 19.088 36.1813 18.7787 36.22 18.508C36.2973 18.1987 36.336 17.928 36.336 17.696C36.336 16.768 36.0653 16.1107 35.524 15.724C34.9827 15.2987 34.248 15.086 33.32 15.086C32.0053 15.086 30.4393 15.434 28.622 16.13C26.8047 16.826 24.8907 17.7927 22.88 19.03C20.908 20.2287 19.0327 21.6013 17.254 23.148C15.4753 24.656 13.9867 26.2413 12.788 27.904C11.28 29.992 10.1587 31.964 9.424 33.82C8.68933 35.676 8.322 37.358 8.322 38.866C8.322 40.8767 8.96 42.4813 10.236 43.68C11.5507 44.8787 13.4453 45.478 15.92 45.478C17.0413 45.478 18.2593 45.362 19.574 45.13C20.8887 44.8593 22.3193 44.4533 23.866 43.912C26.1473 43.1 28.448 41.94 30.768 40.432C33.1267 38.924 35.234 37.0293 37.09 34.748C38.83 32.5827 40.3767 29.934 41.73 26.802C43.0833 23.6313 43.76 20.0547 43.76 16.072C43.76 13.9453 43.5667 12.3213 43.18 11.2C42.832 10.04 42.3873 9.228 41.846 8.764C41.3433 8.3 40.86 8.068 40.396 8.068C40.2413 8.068 40.048 8.10666 39.816 8.184C39.7773 8.184 39.7387 8.20333 39.7 8.242C39.7 8.242 39.6807 8.242 39.642 8.242C39.526 8.242 39.468 8.184 39.468 8.068C39.468 7.87466 39.6033 7.72 39.874 7.604C40.1833 7.488 40.5313 7.43 40.918 7.43C41.6527 7.43 42.4067 7.68133 43.18 8.184C43.9533 8.68666 44.6107 9.53733 45.152 10.736C45.732 11.9347 46.022 13.5587 46.022 15.608C46.022 18.4693 45.558 21.1567 44.63 23.67C43.7407 26.1447 42.6193 28.426 41.266 30.514C39.9127 32.602 38.5787 34.4773 37.264 36.14C35.872 37.9187 34.1127 39.7553 31.986 41.65C29.8593 43.506 27.636 45.0527 25.316 46.29C24.1173 46.9473 22.88 47.4307 21.604 47.74C20.3667 48.088 19.168 48.262 18.008 48.262Z" fill="#FF1C28"></path>
<path d="M54.432 61.688C53.0507 61.5013 51.5013 60.9787 49.784 60.12C48.104 59.2613 46.4053 58.2533 44.688 57.096C42.9707 55.9387 41.3653 54.8 39.872 53.68C38.3787 52.5227 37.1467 51.5333 36.176 50.712C35.2053 49.8907 34.6453 49.4053 34.496 49.256C33.8987 48.6213 33.3573 47.9867 32.872 47.352C32.3867 46.68 32.144 46.0267 32.144 45.392C32.144 44.9813 32.256 44.5893 32.48 44.216C32.6667 43.9173 33.2827 43.2453 34.328 42.2C35.4107 41.1547 36.792 39.9227 38.472 38.504C40.152 37.048 42 35.5547 44.016 34.024C46.032 32.4933 48.0853 31.056 50.176 29.712C52.2667 28.368 54.264 27.2853 56.168 26.464C58.1093 25.6053 59.7893 25.176 61.208 25.176C61.9547 25.176 62.608 25.4933 63.168 26.128C63.7653 26.7627 64.232 27.5093 64.568 28.368C64.9413 29.1893 65.128 29.9173 65.128 30.552C65.128 31.336 64.8667 31.728 64.344 31.728C60.8347 31.728 57.5493 32.3253 54.488 33.52C51.4267 34.6773 48.4213 36.3013 45.472 38.392C42.56 40.4453 39.48 42.816 36.232 45.504C36.9787 46.5867 38.416 48.1173 40.544 50.096C42.672 52.0747 45.5467 54.2587 49.168 56.648C51.3707 58.0667 52.92 59.1493 53.816 59.896C54.7493 60.68 55.216 61.2027 55.216 61.464C55.216 61.688 54.9547 61.7627 54.432 61.688ZM27.328 59.784C27.44 59.9333 27.3467 60.008 27.048 60.008C26.7867 60.0453 26.3947 59.784 25.872 59.224C25.3493 58.7013 24.752 57.7307 24.08 56.312C23.8933 55.9013 23.7627 55.4347 23.688 54.912C23.6133 54.3893 23.576 53.8293 23.576 53.232C23.576 51.6267 23.7813 49.816 24.192 47.8C24.64 45.7467 25.1253 43.6933 25.648 41.64C26.208 39.5867 26.6933 37.72 27.104 36.04C27.552 34.36 27.776 33.072 27.776 32.176C27.776 31.6533 27.7013 31.3173 27.552 31.168C27.216 30.72 27.048 30.3093 27.048 29.936C27.048 29.4133 27.3653 29.0213 28 28.76C28.672 28.4987 29.4373 28.368 30.296 28.368C31.0053 28.368 31.7147 28.4613 32.424 28.648C33.1333 28.7973 33.7307 29.04 34.216 29.376C34.4773 29.6 34.608 29.9733 34.608 30.496C34.608 31.3173 34.328 32.4747 33.768 33.968C33.2453 35.4613 32.5733 37.16 31.752 39.064C30.968 40.9307 30.1653 42.8907 29.344 44.944C28.5227 46.96 27.832 48.9387 27.272 50.88C26.7493 52.8213 26.488 54.5947 26.488 56.2C26.488 57.6187 26.768 58.8133 27.328 59.784Z" fill="black"></path>
</svg><style>@media (prefers-color-scheme: light) { :root { filter: none; } }
@media (prefers-color-scheme: dark) { :root { filter: none; } }
</style></svg>